<?xml version="1.0" encoding="UTF-8" standalone="no"?>
<!-- Created with Inkscape (http://www.inkscape.org/) -->

<svg
   width="104.29545mm"
   height="6.2326293mm"
   viewBox="0 0 104.29545 6.2326293"
   version="1.1"
   id="svg5"
   inkscape:version="1.2.2 (732a01da63, 2022-12-09)"
   xml:space="preserve"
   sodipodi:docname="wave-bot.svg"
   xmlns:inkscape="http://www.inkscape.org/namespaces/inkscape"
   xmlns:sodipodi="http://sodipodi.sourceforge.net/DTD/sodipodi-0.dtd"
   xmlns="http://www.w3.org/2000/svg"
   xmlns:svg="http://www.w3.org/2000/svg"><sodipodi:namedview
     id="namedview7"
     pagecolor="#ffffff"
     bordercolor="#000000"
     borderopacity="1"
     inkscape:showpageshadow="0"
     inkscape:pageopacity="0"
     inkscape:pagecheckerboard="0"
     inkscape:deskcolor="#e5e5e5"
     inkscape:document-units="px"
     showgrid="false"
     inkscape:zoom="1.5322671"
     inkscape:cx="167.39901"
     inkscape:cy="141.94653"
     inkscape:window-width="1920"
     inkscape:window-height="1017"
     inkscape:window-x="-8"
     inkscape:window-y="-8"
     inkscape:window-maximized="1"
     inkscape:current-layer="layer1" /><defs
     id="defs2" /><g
     inkscape:label="Layer 1"
     inkscape:groupmode="layer"
     id="layer1"
     transform="translate(-6.5868638,-18.496204)"><path
       id="rect3109"
       style="fill:#ccfbf1;fill-opacity:1;stroke:none;stroke-width:8.14183;stroke-linejoin:bevel;stroke-dashoffset:4.71938;stop-color:#000000"
       d="M 6.5868638,21.790231 V 18.496204 H 110.88231 v 3.294027 c -2.28192,1.615496 -4.61594,2.866341 -7.53813,0 -4.990207,-4.31846 -7.641207,-2.140173 -10.988927,0 -3.1552,1.897359 -6.09819,4.961913 -10.50054,0 -2.925447,-2.892496 -6.45525,-2.123731 -9.035344,0 -5.365569,4.539141 -10.168551,1.338675 -11.47733,0 -5.110683,-4.646786 -11.151823,-1.398985 -12.698322,0 -4.835899,3.022831 -8.355763,4.722342 -13.919315,0 -3.95287,-2.689053 -9.59036,-5.439203 -14.163513,0 -6.212078,3.874687 -9.316017,3.429233 -13.9740252,0 z"
       sodipodi:nodetypes="ccccccccccccc" /></g></svg>
